#!OML:ASF E:\emotionWalksFemale\Project 1\Capture day 1\Session 1\Female1.ASF
:FULLY-SPECIFIED
:DEGREES
1125
root 8.9645 15.2602 -30.276 177.308 -29.7467 -183.535
lowerback 6.01735 -0.689293 -5.46312
upperback -0.134986 -1.25176 2.00721
thorax -3.35893 -0.520432 5.27624
lowerneck -0.700262 -5.60814 -11.4732
upperneck 23.3095 -16.5537 22.9875
head 10.4223 -8.35414 8.4464
rclavicle 9.93923e-015 1.90833e-014
rhumerus -36.5026 -7.32545 -75.1644
rradius 29.3468
rwrist 21.8388
rhand -5.08621 -51.7221
rfingers 7.12502
rthumb 20.7106 -80.637
lclavicle 9.93923e-015 1.90833e-014
lhumerus -34.3241 -9.98146 96.0742
lradius 37.3804
lwrist -13.6653
lhand -4.92737 -34.1108
lfingers 7.12502
lthumb 20.8632 -5.21257
rfemur -17.6684 29.4934 4.7609
rtibia 17.8516
rfoot -16.5626 -22.3743
rtoes -27.2293
lfemur 5.96559 -15.2609 -30.599
ltibia 26.3387
lfoot -19.8373 -5.77062
ltoes 11.38
1126
root 8.98712 15.2548 -30.3639 177.089 -30.3254 -183.483
lowerback 6.1337 -0.564325 -5.38323
upperback 0.0856454 -1.08696 1.9926
thorax -3.2179 -0.45179 5.20097
lowerneck -0.862339 -5.72086 -11.8619
upperneck 23.0461 -16.6579 23.4028
head 10.4622 -8.38518 8.65672
rclavicle 5.15101e-014 -1.19271e-014
rhumerus -36.4304 -7.45536 -75.2128
rradius 29.418
rwrist 22.0769
rhand -4.5937 -51.8129
rfingers 7.12502
rthumb 21.1837 -80.6755
lclavicle 5.15101e-014 -1.19271e-014
lhumerus -34.0667 -9.55293 95.4492
lradius 36.3202
lwrist -15.1503
lhand -4.28798 -33.8532
lfingers 7.12502
lthumb 21.4774 -5.02379
rfemur -17.0231 29.199 5.52128
rtibia 18.2459
rfoot -16.8628 -21.155
rtoes -26.7902
lfemur 6.19176 -15.0672 -30.2288
ltibia 26.7353
lfoot -19.4338 -6.4527
ltoes 14.2678
1127
root 9.015 15.2516 -30.4538 177.079 -31.1525 -183.625
lowerback 6.43482 -0.505187 -5.41543
upperback 0.0499353 -1.02971 1.86333
thorax -3.43352 -0.415097 5.08581
lowerneck -0.954939 -5.71778 -11.616
upperneck 23.2337 -16.5763 23.1314
head 10.482 -8.31471 8.51774
rclavicle -6.71644e-014 3.26007e-014
rhumerus -36.6834 -7.57609 -75.3222
rradius 29.5398
rwrist 22.0265
rhand -4.33996 -52.1176
rfingers 7.12502
rthumb 21.4275 -80.9526
lclavicle -6.71644e-014 3.26007e-014
lhumerus -34.3117 -9.13184 94.7671
lradius 35.3359
lwrist -16.7155
lhand -4.03456 -33.7418
lfingers 7.12502
lthumb 21.7208 -4.9404
rfemur -16.4841 28.6579 6.05367
rtibia 18.7384
rfoot -17.3057 -19.8484
rtoes -26.4814
lfemur 6.31264 -14.9586 -29.9356
ltibia 27.0003
lfoot -18.9578 -7.33796
ltoes 16.3499
1128
root 9.04339 15.2491 -30.5488 177.225 -32.0288 -183.909
lowerback 6.4451 -0.540853 -5.83957
upperback 0.0836563 -1.11049 1.79919
thorax -3.38777 -0.450852 5.26657
lowerneck -0.891378 -5.65767 -11.3564
upperneck 23.0559 -16.3282 23.0035
head 10.3108 -8.17078 8.44765
rclavicle 8.34896e-015 2.38542e-014
rhumerus -36.6812 -7.48204 -75.4996
rradius 29.454
rwrist 22.0563
rhand -4.80564 -51.8468
rfingers 7.12502
rthumb 20.9801 -80.7321
lclavicle 8.34896e-015 2.38542e-014
lhumerus -34.6524 -8.56185 94.0141
lradius 34.6072
lwrist -18.4142
lhand -4.25793 -33.6105
lfingers 7.12502
lthumb 21.5063 -4.78445
rfemur -16.0648 28.876 6.22373
rtibia 19.1082
rfoot -17.1565 -18.9489
rtoes -26.0429
lfemur 6.39173 -14.936 -29.7364
ltibia 27.2301
lfoot -18.4799 -8.301
ltoes 17.4604
1129
root 9.06807 15.2522 -30.6438 177.326 -32.7771 -184.031
lowerback 5.82475 -0.443897 -6.01901
upperback 0.50303 -0.954365 1.84479
thorax -2.62021 -0.411238 5.38443
lowerneck -1.06716 -5.80853 -11.6149
upperneck 22.5185 -16.2493 23.1902
head 10.1741 -8.0942 8.5516
rclavicle 4.68635e-014 -3.18055e-015
rhumerus -36.1278 -7.4923 -75.4935
rradius 29.329
rwrist 21.8826
rhand -4.84936 -51.6234
rfingers 7.12502
rthumb 20.9381 -80.5133
lclavicle 4.68635e-014 -3.18055e-015
lhumerus -34.3985 -8.53273 93.5476
lradius 34.1859
lwrist -19.7213
lhand -4.14974 -33.2549
lfingers 7.12502
lthumb 21.6102 -4.44077
rfemur -15.7901 29.8353 6.3577
rtibia 19.4001
rfoot -17.4931 -18.4364
rtoes -23.2876
lfemur 6.43081 -14.8355 -29.4083
ltibia 27.4365
lfoot -17.9819 -9.10542
ltoes 17.2042
1130
root 9.09131 15.2654 -30.7369 177.387 -33.5597 -184.125
lowerback 6.0528 -0.393606 -5.95773
upperback 0.374775 -0.89975 1.72363
thorax -2.89185 -0.37105 5.22405
lowerneck -0.896567 -5.81655 -11.8794
upperneck 22.3632 -16.2583 23.4645
head 10.1364 -8.11539 8.71394
rclavicle -1.47722e-014 1.66979e-014
rhumerus -36.4665 -7.0938 -75.8048
rradius 29.3811
rwrist 21.4683
rhand -4.63493 -51.7491
rfingers 7.12502
rthumb 21.1441 -80.6161
lclavicle -1.47722e-014 1.66979e-014
lhumerus -34.8231 -8.34408 92.8508
lradius 33.5578
lwrist -20.7968
lhand -4.09287 -33.1516
lfingers 7.12502
lthumb 21.6648 -4.34371
rfemur -15.4301 30.5002 6.58942
rtibia 19.562
rfoot -16.444 -18.5578
rtoes -25.4625
lfemur 6.42334 -14.6783 -29.0586
ltibia 27.6864
lfoot -17.5266 -9.67697
ltoes 14.0687
1131
root 9.11382 15.2813 -30.8318 177.325 -34.441 -184.142
lowerback 6.2896 -0.417915 -5.89218
upperback 0.324482 -0.945282 1.61664
thorax -3.07376 -0.387303 5.08339
lowerneck -0.860187 -5.73711 -11.8528
upperneck 22.4628 -16.1339 23.4511
head 10.1331 -8.05081 8.72986
rclavicle 7.88927e-015 -1.03368e-014
rhumerus -36.7345 -6.73106 -76.203
rradius 29.4649
rwrist 21.1441
rhand -4.88667 -51.612
rfingers 7.12502
rthumb 20.9023 -80.5058
lclavicle 7.88927e-015 -1.03368e-014
lhumerus -35.0406 -7.7168 91.9264
lradius 32.6792
lwrist -22.1198
lhand -4.50579 -33.3462
lfingers 7.12502
lthumb 21.2682 -4.49313
rfemur -14.8442 30.7477 7.00829
rtibia 19.5832
rfoot -15.2774 -18.5801
rtoes -25.4167
lfemur 6.4671 -14.5496 -28.6408
ltibia 28.0562
lfoot -17.3062 -10.1347
ltoes 9.00703
1132
root 9.13875 15.2934 -30.9287 177.136 -35.3495 -183.906
lowerback 6.42821 -0.457053 -5.68219
upperback 0.345095 -0.991263 1.61408
thorax -3.12745 -0.4124 4.96779
lowerneck -0.974327 -5.66121 -11.8077
upperneck 22.5477 -15.9797 23.4379
head 10.1471 -7.95381 8.73922
rclavicle 1.15295e-014 2.38542e-014
rhumerus -36.849 -6.51577 -76.4815
rradius 29.5003
rwrist 20.998
rhand -5.13221 -51.3835
rfingers 7.12502
rthumb 20.6664 -80.3033
lclavicle 1.15295e-014 2.38542e-014
lhumerus -35.3119 -7.1855 91.0599
lradius 32.1703
lwrist -23.3085
lhand -5.22504 -33.6413
lfingers 7.12502
lthumb 20.5772 -4.71189
rfemur -14.1962 30.7409 7.68002
rtibia 19.5202
rfoot -14.447 -18.5233
rtoes -23.9999
lfemur 6.43774 -14.4836 -27.9438
ltibia 28.5445
lfoot -17.0572 -10.86
ltoes 6.47634
1133
root 9.16883 15.3046 -31.0208 177.001 -36.2559 -183.681
lowerback 6.61904 -0.490198 -5.53305
upperback 0.315305 -1.03533 1.63485
thorax -3.26207 -0.431316 4.91319
lowerneck -1.08867 -5.61758 -11.6853
upperneck 22.6622 -15.8253 23.252
head 10.1479 -7.85439 8.66436
rclavicle -3.59055e-015 3.18055e-015
rhumerus -36.9291 -6.16849 -76.7693
rradius 29.4829
rwrist 20.9171
rhand -5.02962 -51.3633
rfingers 7.12502
rthumb 20.765 -80.2722
lclavicle -3.59055e-015 3.18055e-015
lhumerus -35.7067 -6.85811 90.3023
lradius 31.8725
lwrist -24.1009
lhand -5.75502 -33.9424
lfingers 7.12502
lthumb 20.0678 -4.9588
rfemur -13.6343 30.2815 8.35215
rtibia 19.4746
rfoot -12.9888 -18.3397
rtoes -23.5771
lfemur 6.23384 -14.5998 -27.2233
ltibia 29.1063
lfoot -16.1024 -12.187
ltoes 12.1732
